/* XPM */
static char *Laptopger[] = {
/* columns rows colors chars-per-pixel */
"42 42 127 2 ",
"   c None",
".  c #010101",
"X  c #0D0A02",
"o  c #0B0B0B",
"O  c #120E04",
"+  c #161105",
"@  c #1D1706",
"#  c #0D0E11",
"$  c #131313",
"%  c #171718",
"&  c #1C1C1C",
"*  c #201A07",
"=  c #251E08",
"-  c #2F250A",
";  c #30260A",
":  c #242424",
">  c #2C2A23",
",  c #272729",
"<  c #2B2B2C",
"1  c #353126",
"2  c #343434",
"3  c #383838",
"4  c #44360E",
"5  c #46380F",
"6  c #48390F",
"7  c #4A3B11",
"8  c #503F11",
"9  c #2B7036",
"0  c #34743E",
"q  c #514217",
"w  c #5A4813",
"e  c #614D15",
"r  c #6C5617",
"t  c #6B5519",
"y  c #715B1D",
"u  c #7A611A",
"i  c #786327",
"p  c #3A7644",
"a  c #3E7847",
"s  c #444444",
"d  c #4B4B4B",
"f  c #4E4F51",
"g  c #515152",
"h  c #5C5C5D",
"j  c #615F5B",
"k  c #467B4E",
"l  c #477C50",
"z  c #4B7D53",
"x  c #6B6451",
"c  c #5F5F60",
"v  c #646464",
"b  c #6B6B6B",
"n  c #737373",
"m  c #7C7C7C",
"M  c #856A1D",
"N  c #967720",
"B  c #977820",
"V  c #9D7C22",
"C  c #826E37",
"Z  c #847037",
"A  c #8C7537",
"S  c #4F8057",
"D  c #56825D",
"F  c #5B8562",
"G  c #618767",
"H  c #698B6E",
"J  c #6C8C71",
"K  c #77907B",
"L  c #78917C",
"P  c #A58223",
"I  c #AA8724",
"U  c #B18C26",
"Y  c #C1992A",
"T  c #CAA02B",
"R  c #D6A92E",
"E  c #DAAD2F",
"W  c #E4B531",
"Q  c #EAB933",
"!  c #F0BF34",
"~  c #F5C235",
"^  c #FAC636",
"/  c #FDC936",
"(  c #FFCD38",
")  c #AA8E40",
"_  c #7D9380",
"`  c #848484",
"'  c #898989",
"]  c #849687",
"[  c #859888",
"{  c #8C998E",
"}  c #908F90",
"|  c #939394",
" . c #939C95",
".. c #979E98",
"X. c #9B9B9B",
"o. c #9DA09E",
"O. c #A09FA0",
"+. c #A1A1A1",
"@. c #A0A1A0",
"#. c #A2A1A1",
"$. c #A0A2A1",
"%. c #A2A2A2",
"&. c #A2A3A2",
"*. c #A3A2A3",
"=. c #A3A3A3",
"-. c #A4A3A4",
";. c #A4A4A4",
":. c #A5A4A5",
">. c #A5A5A5",
",. c #A6A4A6",
"<. c #A6A6A6",
"1. c #A7A6A7",
"2. c #A8A5A7",
"3. c #ACACAC",
"4. c #ADADAD",
"5. c #AEAEAE",
"6. c #AFAFAF",
"7. c #B7B7B7",
"8. c #B9B9BA",
"9. c #BCBCBC",
"0. c #BEBEBE",
"q. c #C0C0C0",
"w. c #C1C1C1",
"e. c #C2C2C2",
"r. c #C3C3C3",
"t. c #C4C4C4",
"y. c #C5C5C5",
/* pixels */
"                                                                                    ",
"                                              . .                                   ",
"                                            $ o .                                   ",
"                                  . o o o o , , o o . .                             ",
"                                . . & 3 2 2 3 3 2 2 o . .                           ",
"                              . . : 2 3 3 3 3 3 3 3 < % .                           ",
"                            . o % 3 3 3 3 3 3 3 3 3 3 & .                           ",
"                          . o % 3 3 3 3 3 3 3 3 3 3 3 & .                           ",
"                          . & 3 3 3 3 3 3 3 3 3 3 3 3 : .                           ",
"                        . . & 3 3 3 3 3 3 3 3 3 3 3 3 2 , .                         ",
"                        . % < 3 3 3 3 < % & & , 3 3 3 3 < .                         ",
"                        . < 3 3 3 3 3 , o . . % 3 3 3 3 < .                         ",
"                        o < 3 3 3 3 3 3 2 o . % 3 3 3 3 < o                         ",
"                      . . < 3 3 3 3 3 3 3 < < 2 3 3 3 3 < o .                       ",
"                    . o & 2 3 3 3 3 3 3 3 3 3 3 3 3 : % $ . . .                     ",
"                      o 3 3 3 3 3 3 3 3 3 3 < , , , o @ 6 7 7 6 4                   ",
"                      o 3 3 3 3 3 3 3 3 3 3 $ . . + O u ^ ~ ~ ^ Y *                 ",
"                      o 3 3 3 3 3 3 3 3 3 3 $ . * Y R W / / / / ~ T -               ",
"                    . o 3 3 3 3 3 3 3 3 3 3 , $ X w e I Q A C Z Z C 1 , 3 3 3 3 3 3 ",
"                  . o & 3 3 3 3 3 3 3 3 3 3 3 , $ # . q ) j h h h h c h h h h h g 3 ",
"                  . & 3 3 3 3 3 3 3 3 3 3 3 3 3 3 3 % & g X... . . . . . ...&.X.m 3 ",
"                  . & 3 3 3 3 3 3 3 3 3 3 3 3 3 3 3 2 3 g X.z 0 0 0 0 0 0 a  .b s   ",
"                  . & 3 3 3 3 3 3 3 3 3 3 3 : $ o $ < h ' o.] K K K K l p K o.v 3   ",
"                  . & 3 3 3 3 3 3 3 , : : : o % d d 3 b <.&._ { <.<.<.F k X.` h     ",
"                  . & 3 3 3 3 3 3 2 $ o & & % h 0.3.v n &.{ z J <.&...F D X.d       ",
"                  . & 3 3 3 3 3 3 o . 3 3.6.3.7.3.g ` &.{ p _ o.&.o.k H o.X.d       ",
"                  . & 3 3 3 3 3 3 o g &.r.r.r.y.3.s ` <.{ 9 a k F X.p H } h         ",
"                  . & 3 3 3 3 2 & % h ' ` ` ` ` m b | <...G F F J o.H [ ` 3         ",
"                  . % 3 3 3 3 , o 2 d s 3 d s s h X.&.&.X.-.O.&.&.X.-.X.m 3         ",
"                  . % 3 3 3 3 , o 2 n m s ' h h X.` X.| ' X.' | X.` X.b 3           ",
"                  . & 3 3 3 3 , o 2 d d 3 d s s g d g d d g d g g d g s 3           ",
"                  . & 3 3 3 3 , o b m m m m m m m m m m m m m d & 3   3             ",
"                  . % < 3 3 3 , $ &.r.r.r.r.r.r.r.r.r.r.r.r.y.h .                   ",
"                  . . o 3 3 3 , $ &.r.0.r.r.0.r.0.0.0.0.r.r.8.j X                   ",
"                  . . o 3 3 3 , $ &.r.r.r.r.r.r.r.r.0.r.r.0.d i P . .               ",
"              . . . 4 y & 2 3 , $ <.y.r.r.r.r.r.r.r.y.| g f # u W M + .             ",
"            . X 4 4 P R 7 > , % o n ' ' ' ' ' ' ' ' ' x 4 4 4 P / ~ r @ .           ",
"          . . ; W ~ ^ ^ Q 4 + O . . o o o o o o o o . t W W ! ^ ^ ^ ^ u X .         ",
"          . . ; Q / / ^ ^ E R B .                     * = - Y / / ^ / Q N .         ",
"            . O w e U ( ~ M e 4 .                       . . 6 e M ^ ( I 4 .         ",
"              . . . q I V @ . . .                         . . . = V P 6 . .         ",
"                  . . . . .                                   . . . . . .           "
};
